[Header]
FileType HTR
DataType HTRS
FileVersion 1
NumSegments 64
NumFrames 4
DataFrameRate 24
EulerRotationOrder ZYX
CalibrationUnits mm
RotationUnits Degrees
GlobalAxisofGravity Y
BoneLengthAxis Y
ScaleFactor 1.0
[SegmentNames&Hierarchy]
Hips	GLOBAL
Spine	Hips
Spine1	Spine
Spine2	Spine1
Neck	Spine2
Head	Neck
LeftEye	Head
RightEye	Head
LeftShoulder	Spine2
LeftArm	LeftShoulder
LeftForeArm	LeftArm
LeftHand	LeftForeArm
LeftHandThumb1	LeftHand
LeftHandThumb2	LeftHandThumb1
LeftHandThumb3	LeftHandThumb2
LeftHandThumb4	LeftHandThumb3
LeftHandIndex1	LeftHand
LeftHandIndex2	LeftHandIndex1
LeftHandIndex3	LeftHandIndex2
LeftHandIndex4	LeftHandIndex3
LeftHandMiddle1	LeftHand
LeftHandMiddle2	LeftHandMiddle1
LeftHandMiddle3	LeftHandMiddle2
LeftHandMiddle4	LeftHandMiddle3
LeftHandRing1	LeftHand
LeftHandRing2	LeftHandRing1
LeftHandRing3	LeftHandRing2
LeftHandRing4	LeftHandRing3
LeftHandPinky1	LeftHand
LeftHandPinky2	LeftHandPinky1
LeftHandPinky3	LeftHandPinky2
LeftHandPinky4	LeftHandPinky3
RightShoulder	Spine2
RightArm	RightShoulder
RightForeArm	RightArm
RightHand	RightForeArm
RightHandPinky1	RightHand
RightHandPinky2	RightHandPinky1
RightHandPinky3	RightHandPinky2
RightHandPinky4	RightHandPinky3
RightHandRing1	RightHand
RightHandRing2	RightHandRing1
RightHandRing3	RightHandRing2
RightHandRing4	RightHandRing3
RightHandMiddle1	RightHand
RightHandMiddle2	RightHandMiddle1
RightHandMiddle3	RightHandMiddle2
RightHandMiddle4	RightHandMiddle3
RightHandIndex1	RightHand
RightHandIndex2	RightHandIndex1
RightHandIndex3	RightHandIndex2
RightHandIndex4	RightHandIndex3
RightHandThumb1	RightHand
RightHandThumb2	RightHandThumb1
RightHandThumb3	RightHandThumb2
RightHandThumb4	RightHandThumb3
LeftUpLeg	Hips
LeftLeg	LeftUpLeg
LeftFoot	LeftLeg
LeftToeBase	LeftFoot
RightUpLeg	Hips
RightLeg	RightUpLeg
RightFoot	RightLeg
RightToeBase	RightFoot
[BasePosition]
Hips	0	0	0	0	0	0	1
Spine	0	0	0	0	0	0	1
Spine1	0	0	0	0	0	0	1
Spine2	0	0	0	0	0	0	1
Neck	0	0	0	0	0	0	1
Head	0	0	0	0	0	0	1
LeftEye	0	0	0	0	0	0	1
RightEye	0	0	0	0	0	0	1
LeftShoulder	0	0	0	0	0	0	1
LeftArm	0	0	0	0	0	0	1
LeftForeArm	0	0	0	0	0	0	1
LeftHand	0	0	0	0	0	0	1
LeftHandThumb1	0	0	0	0	0	0	1
LeftHandThumb2	0	0	0	0	0	0	1
LeftHandThumb3	0	0	0	0	0	0	1
LeftHandThumb4	0	0	0	0	0	0	1
LeftHandIndex1	0	0	0	0	0	0	1
LeftHandIndex2	0	0	0	0	0	0	1
LeftHandIndex3	0	0	0	0	0	0	1
LeftHandIndex4	0	0	0	0	0	0	1
LeftHandMiddle1	0	0	0	0	0	0	1
LeftHandMiddle2	0	0	0	0	0	0	1
LeftHandMiddle3	0	0	0	0	0	0	1
LeftHandMiddle4	0	0	0	0	0	0	1
LeftHandRing1	0	0	0	0	0	0	1
LeftHandRing2	0	0	0	0	0	0	1
LeftHandRing3	0	0	0	0	0	0	1
LeftHandRing4	0	0	0	0	0	0	1
LeftHandPinky1	0	0	0	0	0	0	1
LeftHandPinky2	0	0	0	0	0	0	1
LeftHandPinky3	0	0	0	0	0	0	1
LeftHandPinky4	0	0	0	0	0	0	1
RightShoulder	0	0	0	0	0	0	1
RightArm	0	0	0	0	0	0	1
RightForeArm	0	0	0	0	0	0	1
RightHand	0	0	0	0	0	0	1
RightHandPinky1	0	0	0	0	0	0	1
RightHandPinky2	0	0	0	0	0	0	1
RightHandPinky3	0	0	0	0	0	0	1
RightHandPinky4	0	0	0	0	0	0	1
RightHandRing1	0	0	0	0	0	0	1
RightHandRing2	0	0	0	0	0	0	1
RightHandRing3	0	0	0	0	0	0	1
RightHandRing4	0	0	0	0	0	0	1
RightHandMiddle1	0	0	0	0	0	0	1
RightHandMiddle2	0	0	0	0	0	0	1
RightHandMiddle3	0	0	0	0	0	0	1
RightHandMiddle4	0	0	0	0	0	0	1
RightHandIndex1	0	0	0	0	0	0	1
RightHandIndex2	0	0	0	0	0	0	1
RightHandIndex3	0	0	0	0	0	0	1
RightHandIndex4	0	0	0	0	0	0	1
RightHandThumb1	0	0	0	0	0	0	1
RightHandThumb2	0	0	0	0	0	0	1
RightHandThumb3	0	0	0	0	0	0	1
RightHandThumb4	0	0	0	0	0	0	1
LeftUpLeg	0	0	0	0	0	0	1
LeftLeg	0	0	0	0	0	0	1
LeftFoot	0	0	0	0	0	0	1
LeftToeBase	0	0	0	0	0	0	1
RightUpLeg	0	0	0	0	0	0	1
RightLeg	0	0	0	0	0	0	1
RightFoot	0	0	0	0	0	0	1
RightToeBase	0	0	0	0	0	0	1
[Hips]
151	3.235919237	1016.601013	16.73342514	-1.000493646	1.503071904	-5.294636726	1.0
152	3.009964466	1016.591431	16.81796837	-1.010618567	1.479430437	-5.29004097	1.0
153	2.831330776	1016.604553	16.85779953	-1.019440889	1.463795662	-5.281460285	1.0
154	2.662234783	1016.621399	16.8886795	-1.027904987	1.449774504	-5.272164822	1.0
[Spine]
151	0	101.8159943	1.315000057	0.6710520387	-1.330270648	2.913390398	1.0
152	0	101.8159943	1.315000057	0.6853738427	-1.324437499	2.910904884	1.0
153	0	101.8159943	1.315000057	0.6952257752	-1.316335201	2.907186985	1.0
154	0	101.8159943	1.315000057	0.7042640448	-1.307945609	2.903291225	1.0
[Spine1]
151	0	100.8349991	-10.00800037	-0.2010747939	0.09112814814	5.944655418	1.0
152	0	100.8349991	-10.00800037	-0.1838067472	0.09371235222	5.947104454	1.0
153	0	100.8349991	-10.00800037	-0.1631723195	0.09647229314	5.94838047	1.0
154	0	100.8349991	-10.00800037	-0.1419515908	0.09924913198	5.94943285	1.0
[Spine2]
151	0	91	-13.73399925	-0.1718512774	0.7094247937	5.847402573	1.0
152	0	91	-13.73399925	-0.1544912457	0.7104569674	5.85008955	1.0
153	0	91	-13.73399925	-0.1337675154	0.711443305	5.851634026	1.0
154	0	91	-13.73399925	-0.1124575958	0.7124032974	5.85296154	1.0
[Neck]
151	0	166.7169952	-25.16200066	0.9668918252	-0.2830533087	-2.197549105	1.0
152	0	166.7169952	-25.16200066	0.9831989408	-0.2807611823	-2.205478668	1.0
153	0	166.7169952	-25.16200066	0.9876822233	-0.2778385878	-2.220202923	1.0
154	0	166.7169952	-25.16200066	0.9898148179	-0.2747959495	-2.236081362	1.0
[Head]
151	0	96.17900085	16.84999847	1.46935308	0.6424381733	-8.133760452	1.0
152	0	96.17900085	16.84999847	1.487495899	0.648468256	-8.137306213	1.0
153	0	96.17900085	16.84999847	1.516400695	0.6515725851	-8.157208443	1.0
154	0	96.17900085	16.84999847	1.54682529	0.6542339325	-8.180024147	1.0
[LeftEye]
151	30.6760006	64.09500122	92.83599854	0	0	0	1.0
152	30.6760006	64.09500122	92.83599854	0	0	0	1.0
153	30.6760006	64.09500122	92.83599854	0	0	0	1.0
154	30.6760006	64.09500122	92.83599854	0	0	0	1.0
[RightEye]
151	-30.6760006	64.09500122	92.83499908	0	0	0	1.0
152	-30.6760006	64.09500122	92.83499908	0	0	0	1.0
153	-30.6760006	64.09500122	92.83499908	0	0	0	1.0
154	-30.6760006	64.09500122	92.83499908	0	0	0	1.0
[LeftShoulder]
151	45.70400238	109.4599991	-26.28000069	4.552354336	-13.77689362	3.362087011	1.0
152	45.70400238	109.4599991	-26.28000069	4.561567783	-13.76220989	3.212733746	1.0
153	45.70400238	109.4599991	-26.28000069	4.568294525	-13.76827621	3.042337894	1.0
154	45.70400238	109.4599991	-26.28000069	4.574612617	-13.77788162	2.867864847	1.0
[LeftArm]
151	105.923996	-5.24600029	-22.32099915	-2.74078536	4.793563366	-93.46640778	1.0
152	105.923996	-5.24600029	-22.32099915	-2.732505322	4.778722763	-93.2921524	1.0
153	105.923996	-5.24600029	-22.32099915	-2.731157541	4.768041611	-93.10391235	1.0
154	105.923996	-5.24600029	-22.32099915	-2.731063843	4.758096695	-92.91294098	1.0
[LeftForeArm]
151	278.414978	-0.0009999999311	0	-1.447496106e-05	-14.50027657	-0.000148819352	1.0
152	278.414978	-0.0009999999311	0	6.802186363e-06	-14.49659157	-0.0002057867387	1.0
153	278.414978	-0.0009999999311	0	1.128685926e-05	-14.49290466	-0.0002272967249	1.0
154	278.414978	-0.0009999999311	0	1.253640494e-05	-14.48921776	-0.0002417365467	1.0
[LeftHand]
151	283.2879944	0	0	-27.55661392	-1.044551492	-9.968013763	1.0
152	283.2879944	0	0	-27.55761337	-1.040328622	-9.986901283	1.0
153	283.2879944	0	0	-27.53346443	-1.034239769	-9.995800018	1.0
154	283.2879944	0	0	-27.50489616	-1.027999043	-10.0030508	1.0
[LeftHandThumb1]
151	24.6609993	-15.75	26.8239994	17.27899742	-5.889060497	8.778647423	1.0
152	24.6609993	-15.75	26.8239994	17.29099846	-5.857415676	8.801055908	1.0
153	24.6609993	-15.75	26.8239994	17.30443001	-5.822123528	8.826153755	1.0
154	24.6609993	-15.75	26.8239994	17.31814766	-5.786105156	8.85178566	1.0
[LeftHandThumb2]
151	32.29800034	-18.64699936	18.64699936	-1.421311259	30.26274681	-3.397297859	1.0
152	32.29800034	-18.64699936	18.64699936	-1.406541109	30.3020153	-3.389021158	1.0
153	32.29800034	-18.64699936	18.64699936	-1.390029669	30.34584999	-3.379784346	1.0
154	32.29800034	-18.64699936	18.64699936	-1.373171568	30.39059258	-3.370355844	1.0
[LeftHandThumb3]
151	26.52600098	-15.31499958	15.31499958	1.416644692	6.81028986	-0.6293301582	1.0
152	26.52600098	-15.31499958	15.31499958	1.426885009	6.849488735	-0.6200469732	1.0
153	26.52600098	-15.31499958	15.31499958	1.438336015	6.893245697	-0.6096724868	1.0
154	26.52600098	-15.31499958	15.31499958	1.450028062	6.93791008	-0.5990807414	1.0
[LeftHandThumb4]
151	19.54599953	-11.28499985	11.28499985	0	0	0	1.0
152	19.54599953	-11.28499985	11.28499985	0	0	0	1.0
153	19.54599953	-11.28499985	11.28499985	0	0	0	1.0
154	19.54599953	-11.28499985	11.28499985	0	0	0	1.0
[LeftHandIndex1]
151	91.09299469	-5.170999527	22.60099792	-0.3752703667	4.755696774	-8.744476318	1.0
152	91.09299469	-5.170999527	22.60099792	-0.3741018772	4.754367352	-8.730425835	1.0
153	91.09299469	-5.170999527	22.60099792	-0.3728017211	4.752893925	-8.714737892	1.0
154	91.09299469	-5.170999527	22.60099792	-0.3714753389	4.751391411	-8.698722839	1.0
[LeftHandIndex2]
151	36.76399994	0	0	-0.6722812057	2.850421667	-21.47128105	1.0
152	36.76399994	0	0	-0.6715861559	2.849183559	-21.45728302	1.0
153	36.76399994	0	0	-0.6708075404	2.847794294	-21.4416275	1.0
154	36.76399994	0	0	-0.6700124741	2.846374989	-21.42564201	1.0
[LeftHandIndex3]
151	28.83100128	0	0	-0.1263558716	0.8941472769	-11.06707859	1.0
152	28.83100128	0	0	-0.1260870248	0.8927669525	-11.05306625	1.0
153	28.83100128	0	0	-0.1257866174	0.8912255168	-11.0374403	1.0
154	28.83100128	0	0	-0.1254799217	0.8896520138	-11.021492	1.0
[LeftHandIndex4]
151	23.92700005	0	0	0	0	0	1.0
152	23.92700005	0	0	0	0	0	1.0
153	23.92700005	0	0	0	0	0	1.0
154	23.92700005	0	0	0	0	0	1.0
[LeftHandMiddle1]
151	95.33399963	0	0	-1.631591558	8.742493629	-16.78911018	1.0
152	95.33399963	0	0	-1.629871011	8.741497993	-16.77495956	1.0
153	95.33399963	0	0	-1.627946854	8.740382195	-16.75912666	1.0
154	95.33399963	0	0	-1.625982404	8.739242554	-16.74295998	1.0
[LeftHandMiddle2]
151	36.98199844	0	0	-1.489262819	3.889875889	-34.31934357	1.0
152	36.98199844	0	0	-1.48827374	3.888847113	-34.305233	1.0
153	36.98199844	0	0	-1.487178206	3.887696028	-34.28952026	1.0
154	36.98199844	0	0	-1.486061335	3.886520624	-34.27348709	1.0
[LeftHandMiddle3]
151	29.50900078	0	0	-0.1703473479	1.572295785	-13.16158581	1.0
152	29.50900078	0	0	-0.1700028032	1.57094419	-13.14758015	1.0
153	29.50900078	0	0	-0.1696204841	1.569435716	-13.13194466	1.0
154	29.50900078	0	0	-0.1692306548	1.567896008	-13.11598396	1.0
[LeftHandMiddle4]
151	28.3390007	0	0	0	0	0	1.0
152	28.3390007	0	0	0	0	0	1.0
153	28.3390007	0	0	0	0	0	1.0
154	28.3390007	0	0	0	0	0	1.0
[LeftHandRing1]
151	91.04499817	-0.4390000105	-18.65100098	-2.669871807	11.37710571	-24.27841759	1.0
152	91.04499817	-0.4390000105	-18.65100098	-2.67533946	11.37993145	-24.32026291	1.0
153	91.04499817	-0.4390000105	-18.65100098	-2.68144083	11.38307667	-24.36694717	1.0
154	91.04499817	-0.4390000105	-18.65100098	-2.6876688	11.38628387	-24.41459656	1.0
[LeftHandRing2]
151	31.54000092	0	0	-1.04056108	3.845254183	-37.54876328	1.0
152	31.54000092	0	0	-1.042934537	3.848596096	-37.59016037	1.0
153	31.54000092	0	0	-1.04559052	3.852319479	-37.63638687	1.0
154	31.54000092	0	0	-1.04830265	3.856119156	-37.68357849	1.0
[LeftHandRing3]
151	29.37700081	0	0	-0.03600746393	1.647337556	-16.70399666	1.0
152	29.37700081	0	0	-0.0367939733	1.651353955	-16.74511528	1.0
153	29.37700081	0	0	-0.03767900169	1.655835986	-16.79101372	1.0
154	29.37700081	0	0	-0.03858366609	1.660410643	-16.83786392	1.0
[LeftHandRing4]
151	26.47500038	0	0	0	0	0	1.0
152	26.47500038	0	0	0	0	0	1.0
153	26.47500038	0	0	0	0	0	1.0
154	26.47500038	0	0	0	0	0	1.0
[LeftHandPinky1]
151	80.77799988	-4.887000084	-38.06099701	-4.457742214	16.08122635	-34.15010834	1.0
152	80.77799988	-4.887000084	-38.06099701	-4.469636917	16.08208847	-34.19303894	1.0
153	80.77799988	-4.887000084	-38.06099701	-4.482923985	16.08304596	-34.2409935	1.0
154	80.77799988	-4.887000084	-38.06099701	-4.496488571	16.08402252	-34.28995132	1.0
[LeftHandPinky2]
151	36	0	0	-1.751090407	3.639428854	-43.01897049	1.0
152	36	0	0	-1.754060268	3.642278194	-43.06024551	1.0
153	36	0	0	-1.7573843	3.645453691	-43.10631943	1.0
154	36	0	0	-1.760778904	3.648694277	-43.15335083	1.0
[LeftHandPinky3]
151	21.14200211	0	0	-0.4354171753	2.592776299	-17.8907032	1.0
152	21.14200211	0	0	-0.4370139241	2.596583128	-17.93186378	1.0
153	21.14200211	0	0	-0.4388049245	2.600823641	-17.97780991	1.0
154	21.14200211	0	0	-0.4406345785	2.605150938	-18.02470779	1.0
[LeftHandPinky4]
151	19.75699997	0	0	0	0	0	1.0
152	19.75699997	0	0	0	0	0	1.0
153	19.75699997	0	0	0	0	0	1.0
154	19.75699997	0	0	0	0	0	1.0
[RightShoulder]
151	-45.70000076	109.4620056	-26.28000069	6.218518734	2.863384485	-2.997819901	1.0
152	-45.70000076	109.4620056	-26.28000069	6.193855286	2.882689476	-2.873113394	1.0
153	-45.70000076	109.4620056	-26.28000069	6.170154572	2.883258343	-2.729791641	1.0
154	-45.70000076	109.4620056	-26.28000069	6.146621227	2.880203962	-2.582849741	1.0
[RightArm]
151	-105.9280014	-5.248000145	-22.32099915	1.233209372	1.322118402	75.96183777	1.0
152	-105.9280014	-5.248000145	-22.32099915	1.226967096	1.317248702	75.83288574	1.0
153	-105.9280014	-5.248000145	-22.32099915	1.205523491	1.304484129	75.68986511	1.0
154	-105.9280014	-5.248000145	-22.32099915	1.181445479	1.290664911	75.54403687	1.0
[RightForeArm]
151	-278.414978	0	0	-2.950457429e-06	17.69952393	-2.343395863e-05	1.0
152	-278.414978	0	0	-9.648675587e-06	17.70690155	-7.068197192e-06	1.0
153	-278.414978	0	0	-8.27920303e-06	17.71730232	-1.409138531e-05	1.0
154	-278.414978	0	0	-5.412364771e-06	17.72808647	-2.518360816e-05	1.0
[RightHand]
151	-283.2879944	0	0.0009999999311	-12.19896221	-6.673752308	11.73159695	1.0
152	-283.2879944	0	0.0009999999311	-12.20792198	-6.692125797	11.73202038	1.0
153	-283.2879944	0	0.0009999999311	-12.22657681	-6.696985245	11.72378731	1.0
154	-283.2879944	0	0.0009999999311	-12.2469101	-6.69946146	11.7141943	1.0
[RightHandPinky1]
151	-80.76699829	-4.885000229	-38.06000137	-4.457661152	-16.08236122	34.15039444	1.0
152	-80.76699829	-4.885000229	-38.06000137	-4.46957016	-16.08322334	34.19339752	1.0
153	-80.76699829	-4.885000229	-38.06000137	-4.48285675	-16.08418083	34.24135971	1.0
154	-80.76699829	-4.885000229	-38.06000137	-4.496418476	-16.0851593	34.29030228	1.0
[RightHandPinky2]
151	-36	0	0.0009999999311	-1.749781132	-3.637718201	43.01891327	1.0
152	-36	0	0.0009999999311	-1.752754569	-3.640570402	43.06019211	1.0
153	-36	0	0.0009999999311	-1.756076336	-3.643746138	43.10627365	1.0
154	-36	0	0.0009999999311	-1.759467483	-3.646986485	43.15330887	1.0
[RightHandPinky3]
151	-21.14200211	0	0	-0.6509455442	0.2926209569	19.49282265	1.0
152	-21.14200211	0	0	-0.6526472569	0.2888720334	19.53389168	1.0
153	-21.14200211	0	0	-0.6545549035	0.2846834958	19.57975006	1.0
154	-21.14200211	0	0	-0.6565034986	0.2804075778	19.62656212	1.0
[RightHandPinky4]
151	-19.75699997	0	0	0	0	0	1.0
152	-19.75699997	0	0	0	0	0	1.0
153	-19.75699997	0	0	0	0	0	1.0
154	-19.75699997	0	0	0	0	0	1.0
[RightHandRing1]
151	-91.03599548	-0.4390000105	-18.65100098	-2.669811487	-11.3767786	24.27853775	1.0
152	-91.03599548	-0.4390000105	-18.65100098	-2.675279856	-11.37959766	24.32039642	1.0
153	-91.03599548	-0.4390000105	-18.65100098	-2.681386232	-11.38274479	24.36710358	1.0
154	-91.03599548	-0.4390000105	-18.65100098	-2.687619686	-11.38595581	24.41477585	1.0
[RightHandRing2]
151	-31.54000092	0	0	-1.040399075	-3.844774246	37.54881287	1.0
152	-31.54000092	0	0	-1.042770863	-3.848111391	37.59021378	1.0
153	-31.54000092	0	0	-1.045425296	-3.851832628	37.63644028	1.0
154	-31.54000092	0	0	-1.048135996	-3.855630159	37.6836319	1.0
[RightHandRing3]
151	-29.37700081	0	0	-0.08893803507	0.3474684954	15.18328667	1.0
152	-29.37700081	0	0	-0.08961884677	0.3434331119	15.22437668	1.0
153	-29.37700081	0	0	-0.09038358927	0.338929683	15.27024269	1.0
154	-29.37700081	0	0	-0.09116508812	0.3343330324	15.31706047	1.0
[RightHandRing4]
151	-26.47500038	0	0	0	0	0	1.0
152	-26.47500038	0	0	0	0	0	1.0
153	-26.47500038	0	0	0	0	0	1.0
154	-26.47500038	0	0	0	0	0	1.0
[RightHandMiddle1]
151	-95.32500458	0	0	-1.631560922	-8.74226284	16.78918076	1.0
152	-95.32500458	0	0	-1.629847527	-8.741264343	16.77507591	1.0
153	-95.32500458	0	0	-1.627922297	-8.740148544	16.75923347	1.0
154	-95.32500458	0	0	-1.625954866	-8.73900795	16.74304962	1.0
[RightHandMiddle2]
151	-36.98199844	0	0	-1.489118814	-3.889427185	34.31937408	1.0
152	-36.98199844	0	0	-1.488138437	-3.888396502	34.30527878	1.0
153	-36.98199844	0	0	-1.487042546	-3.88724637	34.28956985	1.0
154	-36.98199844	0	0	-1.485923767	-3.886072874	34.27354813	1.0
[RightHandMiddle3]
151	-29.50900078	0	0	-0.2802355289	-1.763355732	16.79637909	1.0
152	-29.50900078	0	0	-0.2798095942	-1.76203227	16.78237534	1.0
153	-29.50900078	0	0	-0.2793319821	-1.760551929	16.7667408	1.0
154	-29.50900078	0	0	-0.2788440883	-1.759040356	16.75078201	1.0
[RightHandMiddle4]
151	-28.3390007	0	0.0009999999311	0	0	0	1.0
152	-28.3390007	0	0.0009999999311	0	0	0	1.0
153	-28.3390007	0	0.0009999999311	0	0	0	1.0
154	-28.3390007	0	0.0009999999311	0	0	0	1.0
[RightHandIndex1]
151	-91.08300018	-5.167999744	22.60099792	-0.3752600253	-4.755568504	8.744531631	1.0
152	-91.08300018	-5.167999744	22.60099792	-0.374096483	-4.754247189	8.730489731	1.0
153	-91.08300018	-5.167999744	22.60099792	-0.3727961779	-4.752771854	8.714804649	1.0
154	-91.08300018	-5.167999744	22.60099792	-0.3714686632	-4.751266003	8.698793411	1.0
[RightHandIndex2]
151	-36.76399994	0	0	-0.6722279787	-2.850132465	21.47132492	1.0
152	-36.76399994	0	0	-0.6715300679	-2.848890781	21.45730591	1.0
153	-36.76399994	0	0	-0.6707520485	-2.847502232	21.44165039	1.0
154	-36.76399994	0	0	-0.6699581146	-2.846084833	21.42566681	1.0
[RightHandIndex3]
151	-28.83100128	0	0	-0.260761112	-0.2448130548	14.7409277	1.0
152	-28.83100128	0	0	-0.2604019046	-0.2434512675	14.72692013	1.0
153	-28.83100128	0	0	-0.2600031197	-0.2419315279	14.7112999	1.0
154	-28.83100128	0	0	-0.259596467	-0.2403803617	14.69535923	1.0
[RightHandIndex4]
151	-23.92700005	0	0	0	0	0	1.0
152	-23.92700005	0	0	0	0	0	1.0
153	-23.92700005	0	0	0	0	0	1.0
154	-23.92700005	0	0	0	0	0	1.0
[RightHandThumb1]
151	-24.64799881	-15.72700024	26.82600021	17.27867889	5.889284134	-8.778904915	1.0
152	-24.64799881	-15.72700024	26.82600021	17.29065132	5.857643604	-8.801326752	1.0
153	-24.64799881	-15.72700024	26.82600021	17.30408287	5.822351456	-8.82642746	1.0
154	-24.64799881	-15.72700024	26.82600021	17.31780624	5.78633213	-8.852059364	1.0
[RightHandThumb2]
151	-32.29800034	-18.64699936	18.64699936	-1.421998858	-30.26141739	3.399016619	1.0
152	-32.29800034	-18.64699936	18.64699936	-1.407215238	-30.30066872	3.390733719	1.0
153	-32.29800034	-18.64699936	18.64699936	-1.390700698	-30.3445015	3.381488562	1.0
154	-32.29800034	-18.64699936	18.64699936	-1.373841405	-30.38924599	3.372051477	1.0
[RightHandThumb3]
151	-26.52600098	-15.31399918	15.31399918	1.231942773	-5.947438717	1.425754189	1.0
152	-26.52600098	-15.31399918	15.31399918	1.241609335	-5.986777306	1.416672349	1.0
153	-26.52600098	-15.31399918	15.31399918	1.252427578	-6.030687809	1.406551957	1.0
154	-26.52600098	-15.31399918	15.31399918	1.263474941	-6.075508595	1.396223783	1.0
[RightHandThumb4]
151	-19.54599953	-11.28499985	11.28499985	0	0	0	1.0
152	-19.54599953	-11.28499985	11.28499985	0	0	0	1.0
153	-19.54599953	-11.28499985	11.28499985	0	0	0	1.0
154	-19.54599953	-11.28499985	11.28499985	0	0	0	1.0
[LeftUpLeg]
151	82.07800293	-67.51699829	-15.99599934	-17.32042885	15.24251842	12.08234596	1.0
152	82.07800293	-67.51699829	-15.99599934	-17.29749298	15.25129128	12.09751129	1.0
153	82.07800293	-67.51699829	-15.99599934	-17.26992798	15.25594807	12.10365963	1.0
154	82.07800293	-67.51699829	-15.99599934	-17.24182701	15.25976086	12.10803986	1.0
[LeftLeg]
151	0	-443.7049866	2.845999956	24.75192642	7.734501839	6.073364735	1.0
152	0	-443.7049866	2.845999956	24.75125504	7.731009007	6.074522495	1.0
153	0	-443.7049866	2.845999956	24.73023224	7.730165958	6.071966648	1.0
154	0	-443.7049866	2.845999956	24.70565033	7.729794025	6.068752289	1.0
[LeftFoot]
151	0	-444.2789917	-29.8219986	-3.962760687	2.700987816	-11.31522465	1.0
152	0	-444.2789917	-29.8219986	-3.953742266	2.710204363	-11.31911755	1.0
153	0	-444.2789917	-29.8219986	-3.944128036	2.723455429	-11.32679653	1.0
154	0	-444.2789917	-29.8219986	-3.934542179	2.737484455	-11.33504295	1.0
[LeftToeBase]
151	0	-87.28699493	107.1060028	-0.4744506478	-1.482115385e-05	1.525022384e-07	1.0
152	0	-87.28699493	107.1060028	-0.4699902833	-1.741070628e-05	2.426996161e-06	1.0
153	0	-87.28699493	107.1060028	-0.4684260786	-5.077764399e-06	1.648238253e-06	1.0
154	0	-87.28699493	107.1060028	-0.4674757719	9.65487834e-06	2.861407893e-07	1.0
[RightUpLeg]
151	-82.07800293	-67.51699829	-15.99599934	-1.889656425	-4.532201767	11.02475262	1.0
152	-82.07800293	-67.51699829	-15.99599934	-1.863202333	-4.532494545	11.02925682	1.0
153	-82.07800293	-67.51699829	-15.99599934	-1.838510394	-4.531802654	11.02836514	1.0
154	-82.07800293	-67.51699829	-15.99599934	-1.814555645	-4.531007767	11.02643299	1.0
[RightLeg]
151	0	-443.7049866	2.861999989	11.33709908	-5.630224705	2.066093683	1.0
152	0	-443.7049866	2.861999989	11.32213879	-5.606604576	2.077522516	1.0
153	0	-443.7049866	2.861999989	11.30025578	-5.591839314	2.085467339	1.0
154	0	-443.7049866	2.861999989	11.27755737	-5.578873634	2.092771053	1.0
[RightFoot]
151	0	-444.2770081	-29.83799934	-9.721027374	-0.3560220301	-8.090055466	1.0
152	0	-444.2770081	-29.83799934	-9.719107628	-0.358294785	-8.109144211	1.0
153	0	-444.2770081	-29.83799934	-9.711173058	-0.3593218625	-8.123518944	1.0
154	0	-444.2770081	-29.83799934	-9.702328682	-0.3601222336	-8.136983871	1.0
[RightToeBase]
151	0	-87.28699493	107.1060028	-0.5658584833	-3.868766726e-06	2.637132184e-06	1.0
152	0	-87.28699493	107.1060028	-0.5601396561	9.249511095e-07	2.710442914e-06	1.0
153	0	-87.28699493	107.1060028	-0.562417388	-5.764580351e-07	1.859766485e-06	1.0
154	0	-87.28699493	107.1060028	-0.5660110116	-3.234991027e-06	8.405953054e-07	1.0
[EndOfFile]
